<mxfile host="app.diagrams.net" modified="2021-06-01T11:32:44.754Z" agent="5.0 (Macintosh; Intel Mac OS X 10_15_7) AppleWebKit/537.36 (KHTML, like Gecko) Chrome/90.0.4430.85 Safari/537.36" etag="_NzmG6fqmJRL-v4EmNij" version="14.6.12" type="github">
  <diagram id="OCHjULSu1DyBYGUDZAkZ" name="Page-1">
    <mxGraphModel dx="899" dy="589" grid="1" gridSize="10" guides="1" tooltips="1" connect="0" arrows="1" fold="1" page="1" pageScale="1" pageWidth="827" pageHeight="1169" math="0" shadow="0">
      <root>
        <mxCell id="0" />
        <mxCell id="1" parent="0" />
        <mxCell id="9-z5hyXyrFVvHmD_KuJB-18" value="" style="rounded=0;whiteSpace=wrap;fontSize=16;dashed=1;" parent="1" vertex="1">
          <mxGeometry x="400" y="370" width="440" height="290" as="geometry" />
        </mxCell>
        <mxCell id="c0s-1U45BDCgnt8DzCzi-21" value="" style="shape=image;verticalAlign=top;verticalLabelPosition=bottom;labelBackgroundColor=#ffffff;imageAspect=0;aspect=fixed;image=https://cdn0.iconfinder.com/data/icons/flat-round-system/512/tor-128.png;fontSize=16;" parent="1" vertex="1">
          <mxGeometry x="450" y="520" width="40" height="40" as="geometry" />
        </mxCell>
        <mxCell id="c0s-1U45BDCgnt8DzCzi-58" value="洋葱网络" style="text;align=center;verticalAlign=middle;resizable=0;points=[];autosize=1;fontSize=16;" parent="1" vertex="1">
          <mxGeometry x="580" y="660" width="80" height="20" as="geometry" />
        </mxCell>
        <mxCell id="9-z5hyXyrFVvHmD_KuJB-23" value="" style="shape=image;verticalAlign=top;verticalLabelPosition=bottom;labelBackgroundColor=#ffffff;imageAspect=0;aspect=fixed;image=https://cdn0.iconfinder.com/data/icons/flat-round-system/512/tor-128.png;fontSize=16;" parent="1" vertex="1">
          <mxGeometry x="450" y="420" width="40" height="40" as="geometry" />
        </mxCell>
        <mxCell id="ASuX-T2_M9IP5Rfn4ODh-6" style="rounded=0;orthogonalLoop=1;jettySize=auto;html=1;entryX=0.3;entryY=1.2;entryDx=0;entryDy=0;entryPerimeter=0;exitX=0.508;exitY=0.004;exitDx=0;exitDy=0;exitPerimeter=0;" parent="1" source="3aFzCoHox-xoftAFMv3z-1" target="ASuX-T2_M9IP5Rfn4ODh-2" edge="1">
          <mxGeometry relative="1" as="geometry" />
        </mxCell>
        <mxCell id="3aFzCoHox-xoftAFMv3z-1" value="" style="rounded=0;whiteSpace=wrap;dashed=1;dashPattern=1 1;fontSize=16;" parent="1" vertex="1">
          <mxGeometry x="354" y="680" width="120" height="230" as="geometry" />
        </mxCell>
        <mxCell id="3aFzCoHox-xoftAFMv3z-5" value="" style="aspect=fixed;pointerEvents=1;shadow=0;dashed=0;strokeColor=none;labelPosition=center;verticalLabelPosition=bottom;verticalAlign=top;align=center;fillColor=#00188D;shape=mxgraph.mscae.enterprise.app_generic;fontSize=16;" parent="1" vertex="1">
          <mxGeometry x="389" y="700" width="50" height="39" as="geometry" />
        </mxCell>
        <mxCell id="3aFzCoHox-xoftAFMv3z-6" value="Tor代理服务" style="text;align=center;verticalAlign=middle;resizable=0;points=[];autosize=1;fontSize=16;" parent="1" vertex="1">
          <mxGeometry x="364" y="739" width="100" height="20" as="geometry" />
        </mxCell>
        <mxCell id="3aFzCoHox-xoftAFMv3z-12" value="" style="rounded=0;orthogonalLoop=1;jettySize=auto;fontSize=16;startArrow=classic;startFill=1;" parent="1" edge="1">
          <mxGeometry x="359" y="595.5" as="geometry">
            <mxPoint x="414" y="815.5" as="sourcePoint" />
            <mxPoint x="414" y="766.5" as="targetPoint" />
          </mxGeometry>
        </mxCell>
        <mxCell id="T7WeoSZBhTSac08RslKe-20" value="" style="shape=image;verticalAlign=top;verticalLabelPosition=bottom;labelBackgroundColor=#ffffff;imageAspect=0;aspect=fixed;image=https://cdn1.iconfinder.com/data/icons/logotypes/32/chrome-128.png;fontSize=16;" parent="1" vertex="1">
          <mxGeometry x="389" y="820" width="50" height="50" as="geometry" />
        </mxCell>
        <mxCell id="T7WeoSZBhTSac08RslKe-21" value="浏览器端&#xa;发送方" style="text;align=center;verticalAlign=middle;resizable=0;points=[];autosize=1;fontSize=16;" parent="1" vertex="1">
          <mxGeometry x="374" y="870" width="80" height="40" as="geometry" />
        </mxCell>
        <mxCell id="T7WeoSZBhTSac08RslKe-30" value="" style="rounded=0;whiteSpace=wrap;dashed=1;dashPattern=1 1;fontSize=16;" parent="1" vertex="1">
          <mxGeometry x="790" y="680" width="120" height="230" as="geometry" />
        </mxCell>
        <mxCell id="T7WeoSZBhTSac08RslKe-31" value="" style="aspect=fixed;pointerEvents=1;shadow=0;dashed=0;strokeColor=none;labelPosition=center;verticalLabelPosition=bottom;verticalAlign=top;align=center;fillColor=#00188D;shape=mxgraph.mscae.enterprise.app_generic;fontSize=16;" parent="1" vertex="1">
          <mxGeometry x="825" y="700" width="50" height="39" as="geometry" />
        </mxCell>
        <mxCell id="T7WeoSZBhTSac08RslKe-32" value="Tor代理服务" style="text;align=center;verticalAlign=middle;resizable=0;points=[];autosize=1;fontSize=16;" parent="1" vertex="1">
          <mxGeometry x="800" y="739" width="100" height="20" as="geometry" />
        </mxCell>
        <mxCell id="T7WeoSZBhTSac08RslKe-33" value="" style="rounded=0;orthogonalLoop=1;jettySize=auto;fontSize=16;startArrow=classic;startFill=1;" parent="1" edge="1">
          <mxGeometry x="795" y="595.5" as="geometry">
            <mxPoint x="850" y="815.5" as="sourcePoint" />
            <mxPoint x="850" y="766.5" as="targetPoint" />
          </mxGeometry>
        </mxCell>
        <mxCell id="T7WeoSZBhTSac08RslKe-34" value="" style="shape=image;verticalAlign=top;verticalLabelPosition=bottom;labelBackgroundColor=#ffffff;imageAspect=0;aspect=fixed;image=https://cdn1.iconfinder.com/data/icons/logotypes/32/chrome-128.png;fontSize=16;" parent="1" vertex="1">
          <mxGeometry x="825" y="820" width="50" height="50" as="geometry" />
        </mxCell>
        <mxCell id="T7WeoSZBhTSac08RslKe-35" value="浏览器端&#xa;接收方" style="text;align=center;verticalAlign=middle;resizable=0;points=[];autosize=1;fontSize=16;" parent="1" vertex="1">
          <mxGeometry x="810" y="870" width="80" height="40" as="geometry" />
        </mxCell>
        <mxCell id="T7WeoSZBhTSac08RslKe-39" value="" style="shape=image;verticalAlign=top;verticalLabelPosition=bottom;labelBackgroundColor=#ffffff;imageAspect=0;aspect=fixed;image=https://cdn0.iconfinder.com/data/icons/flat-round-system/512/tor-128.png;fontSize=16;" parent="1" vertex="1">
          <mxGeometry x="780" y="480" width="40" height="40" as="geometry" />
        </mxCell>
        <mxCell id="T7WeoSZBhTSac08RslKe-41" value="" style="shape=image;verticalAlign=top;verticalLabelPosition=bottom;labelBackgroundColor=#ffffff;imageAspect=0;aspect=fixed;image=https://cdn0.iconfinder.com/data/icons/flat-round-system/512/tor-128.png;fontSize=16;" parent="1" vertex="1">
          <mxGeometry x="560" y="610" width="40" height="40" as="geometry" />
        </mxCell>
        <mxCell id="T7WeoSZBhTSac08RslKe-42" value="" style="shape=image;verticalAlign=top;verticalLabelPosition=bottom;labelBackgroundColor=#ffffff;imageAspect=0;aspect=fixed;image=https://cdn0.iconfinder.com/data/icons/flat-round-system/512/tor-128.png;fontSize=16;" parent="1" vertex="1">
          <mxGeometry x="710" y="610" width="40" height="40" as="geometry" />
        </mxCell>
        <mxCell id="T7WeoSZBhTSac08RslKe-43" value="" style="shape=image;verticalAlign=top;verticalLabelPosition=bottom;labelBackgroundColor=#ffffff;imageAspect=0;aspect=fixed;image=https://cdn0.iconfinder.com/data/icons/flat-round-system/512/tor-128.png;fontSize=16;" parent="1" vertex="1">
          <mxGeometry x="740" y="540" width="40" height="40" as="geometry" />
        </mxCell>
        <mxCell id="T7WeoSZBhTSac08RslKe-44" value="" style="shape=image;verticalAlign=top;verticalLabelPosition=bottom;labelBackgroundColor=#ffffff;imageAspect=0;aspect=fixed;image=https://cdn0.iconfinder.com/data/icons/flat-round-system/512/tor-128.png;fontSize=16;" parent="1" vertex="1">
          <mxGeometry x="630" y="540" width="40" height="40" as="geometry" />
        </mxCell>
        <mxCell id="ASuX-T2_M9IP5Rfn4ODh-1" value="" style="pointerEvents=1;shadow=0;dashed=0;strokeColor=none;fillColor=#505050;labelPosition=center;verticalLabelPosition=bottom;verticalAlign=top;outlineConnect=0;align=center;shape=mxgraph.office.servers.application_server_green;fontSize=16;" parent="1" vertex="1">
          <mxGeometry x="590" y="380" width="80" height="90" as="geometry" />
        </mxCell>
        <mxCell id="ASuX-T2_M9IP5Rfn4ODh-2" value="协调服务端" style="text;align=center;verticalAlign=middle;resizable=0;points=[];autosize=1;fontSize=16;" parent="1" vertex="1">
          <mxGeometry x="580" y="470" width="100" height="20" as="geometry" />
        </mxCell>
        <mxCell id="ASuX-T2_M9IP5Rfn4ODh-4" value="" style="shape=image;verticalAlign=top;verticalLabelPosition=bottom;labelBackgroundColor=#ffffff;imageAspect=0;aspect=fixed;image=https://cdn0.iconfinder.com/data/icons/flat-round-system/512/tor-128.png;fontSize=16;" parent="1" vertex="1">
          <mxGeometry x="700" y="405" width="40" height="40" as="geometry" />
        </mxCell>
        <mxCell id="ASuX-T2_M9IP5Rfn4ODh-5" value="" style="shape=image;verticalAlign=top;verticalLabelPosition=bottom;labelBackgroundColor=#ffffff;imageAspect=0;aspect=fixed;image=https://cdn0.iconfinder.com/data/icons/flat-round-system/512/tor-128.png;fontSize=16;" parent="1" vertex="1">
          <mxGeometry x="520" y="470" width="40" height="40" as="geometry" />
        </mxCell>
        <mxCell id="ASuX-T2_M9IP5Rfn4ODh-7" style="rounded=0;orthogonalLoop=1;jettySize=auto;html=1;entryX=0.79;entryY=1.25;entryDx=0;entryDy=0;entryPerimeter=0;exitX=0.5;exitY=0;exitDx=0;exitDy=0;exitPerimeter=0;" parent="1" source="T7WeoSZBhTSac08RslKe-30" target="ASuX-T2_M9IP5Rfn4ODh-2" edge="1">
          <mxGeometry relative="1" as="geometry">
            <mxPoint x="390.96000000000004" y="760.9200000000001" as="sourcePoint" />
            <mxPoint x="651" y="499" as="targetPoint" />
          </mxGeometry>
        </mxCell>
        <mxCell id="ASuX-T2_M9IP5Rfn4ODh-8" style="rounded=0;orthogonalLoop=1;jettySize=auto;html=1;entryX=-0.025;entryY=0.47;entryDx=0;entryDy=0;entryPerimeter=0;startArrow=classic;startFill=1;" parent="1" target="T7WeoSZBhTSac08RslKe-30" edge="1">
          <mxGeometry relative="1" as="geometry">
            <mxPoint x="470" y="788" as="sourcePoint" />
            <mxPoint x="816" y="716" as="targetPoint" />
          </mxGeometry>
        </mxCell>
      </root>
    </mxGraphModel>
  </diagram>
</mxfile>
